<svg id="visual" viewBox="0 0 1600 600" width="1600" height="600" xmlns="http://www.w3.org/2000/svg" xmlns:xlink="http://www.w3.org/1999/xlink" version="1.1"><path d="M0 90L22.2 87.3C44.3 84.7 88.7 79.3 133.2 84C177.7 88.7 222.3 103.3 266.8 109C311.3 114.7 355.7 111.3 400 108.8C444.3 106.3 488.7 104.7 533.2 98.8C577.7 93 622.3 83 666.8 77.8C711.3 72.7 755.7 72.3 800 72.3C844.3 72.3 888.7 72.7 933.2 74.2C977.7 75.7 1022.3 78.3 1066.8 85.2C1111.3 92 1155.7 103 1200 104.3C1244.3 105.7 1288.7 97.3 1333.2 97C1377.7 96.7 1422.3 104.3 1466.8 107C1511.3 109.7 1555.7 107.3 1577.8 106.2L1600 105L1600 0L1577.8 0C1555.7 0 1511.3 0 1466.8 0C1422.3 0 1377.7 0 1333.2 0C1288.7 0 1244.3 0 1200 0C1155.7 0 1111.3 0 1066.8 0C1022.3 0 977.7 0 933.2 0C888.7 0 844.3 0 800 0C755.7 0 711.3 0 666.8 0C622.3 0 577.7 0 533.2 0C488.7 0 444.3 0 400 0C355.7 0 311.3 0 266.8 0C222.3 0 177.7 0 133.2 0C88.7 0 44.3 0 22.2 0L0 0Z" fill="#060666"></path><path d="M0 65L22.2 69.2C44.3 73.3 88.7 81.7 133.2 80.7C177.7 79.7 222.3 69.3 266.8 70.5C311.3 71.7 355.7 84.3 400 89.3C444.3 94.3 488.7 91.7 533.2 86.2C577.7 80.7 622.3 72.3 666.8 73C711.3 73.7 755.7 83.3 800 85.2C844.3 87 888.7 81 933.2 77.2C977.7 73.3 1022.3 71.7 1066.8 69C1111.3 66.3 1155.7 62.7 1200 66.8C1244.3 71 1288.7 83 1333.2 86.7C1377.7 90.3 1422.3 85.7 1466.8 81.2C1511.3 76.7 1555.7 72.3 1577.8 70.2L1600 68L1600 0L1577.8 0C1555.7 0 1511.3 0 1466.8 0C1422.3 0 1377.7 0 1333.2 0C1288.7 0 1244.3 0 1200 0C1155.7 0 1111.3 0 1066.8 0C1022.3 0 977.7 0 933.2 0C888.7 0 844.3 0 800 0C755.7 0 711.3 0 666.8 0C622.3 0 577.7 0 533.2 0C488.7 0 444.3 0 400 0C355.7 0 311.3 0 266.8 0C222.3 0 177.7 0 133.2 0C88.7 0 44.3 0 22.2 0L0 0Z" fill="#000b55"></path><path d="M0 42L22.2 47C44.3 52 88.7 62 133.2 63.7C177.7 65.3 222.3 58.7 266.8 59.3C311.3 60 355.7 68 400 70.8C444.3 73.7 488.7 71.3 533.2 71.3C577.7 71.3 622.3 73.7 666.8 71C711.3 68.3 755.7 60.7 800 60.5C844.3 60.3 888.7 67.7 933.2 69.2C977.7 70.7 1022.3 66.3 1066.8 62.5C1111.3 58.7 1155.7 55.3 1200 51.8C1244.3 48.3 1288.7 44.7 1333.2 43.8C1377.7 43 1422.3 45 1466.8 46C1511.3 47 1555.7 47 1577.8 47L1600 47L1600 0L1577.8 0C1555.7 0 1511.3 0 1466.8 0C1422.3 0 1377.7 0 1333.2 0C1288.7 0 1244.3 0 1200 0C1155.7 0 1111.3 0 1066.8 0C1022.3 0 977.7 0 933.2 0C888.7 0 844.3 0 800 0C755.7 0 711.3 0 666.8 0C622.3 0 577.7 0 533.2 0C488.7 0 444.3 0 400 0C355.7 0 311.3 0 266.8 0C222.3 0 177.7 0 133.2 0C88.7 0 44.3 0 22.2 0L0 0Z" fill="#000b44"></path><path d="M0 21L22.2 24.7C44.3 28.3 88.7 35.7 133.2 36.8C177.7 38 222.3 33 266.8 29.7C311.3 26.3 355.7 24.7 400 26.2C444.3 27.7 488.7 32.3 533.2 33C577.7 33.7 622.3 30.3 666.8 32.5C711.3 34.7 755.7 42.3 800 42.5C844.3 42.7 888.7 35.3 933.2 35.7C977.7 36 1022.3 44 1066.8 42.3C1111.3 40.7 1155.7 29.3 1200 29.7C1244.3 30 1288.7 42 1333.2 44.3C1377.7 46.7 1422.3 39.3 1466.8 37.8C1511.3 36.3 1555.7 40.7 1577.8 42.8L1600 45L1600 0L1577.8 0C1555.7 0 1511.3 0 1466.8 0C1422.3 0 1377.7 0 1333.2 0C1288.7 0 1244.3 0 1200 0C1155.7 0 1111.3 0 1066.8 0C1022.3 0 977.7 0 933.2 0C888.7 0 844.3 0 800 0C755.7 0 711.3 0 666.8 0C622.3 0 577.7 0 533.2 0C488.7 0 444.3 0 400 0C355.7 0 311.3 0 266.8 0C222.3 0 177.7 0 133.2 0C88.7 0 44.3 0 22.2 0L0 0Z" fill="#040732"></path><path d="M0 4L22.2 9.3C44.3 14.7 88.7 25.3 133.2 29.2C177.7 33 222.3 30 266.8 29.5C311.3 29 355.7 31 400 29.5C444.3 28 488.7 23 533.2 22C577.7 21 622.3 24 666.8 21.3C711.3 18.7 755.7 10.3 800 8.8C844.3 7.3 888.7 12.7 933.2 12.3C977.7 12 1022.3 6 1066.8 8.8C1111.3 11.7 1155.7 23.3 1200 25.5C1244.3 27.7 1288.7 20.3 1333.2 16.5C1377.7 12.7 1422.3 12.3 1466.8 13C1511.3 13.7 1555.7 15.3 1577.8 16.2L1600 17L1600 0L1577.8 0C1555.7 0 1511.3 0 1466.8 0C1422.3 0 1377.7 0 1333.2 0C1288.7 0 1244.3 0 1200 0C1155.7 0 1111.3 0 1066.8 0C1022.3 0 977.7 0 933.2 0C888.7 0 844.3 0 800 0C755.7 0 711.3 0 666.8 0C622.3 0 577.7 0 533.2 0C488.7 0 444.3 0 400 0C355.7 0 311.3 0 266.8 0C222.3 0 177.7 0 133.2 0C88.7 0 44.3 0 22.2 0L0 0Z" fill="#020121"></path></svg>