<svg id="visual" viewBox="0 0 900 600" width="900" height="600" xmlns="http://www.w3.org/2000/svg" xmlns:xlink="http://www.w3.org/1999/xlink" version="1.1"><path d="M0 86L11.5 87.5C23 89 46 92 69 92.5C92 93 115 91 138.2 85.2C161.3 79.3 184.7 69.7 207.8 70.3C231 71 254 82 277 83C300 84 323 75 346 70.8C369 66.7 392 67.3 415.2 68.8C438.3 70.3 461.7 72.7 484.8 73.5C508 74.3 531 73.7 554 72.7C577 71.7 600 70.3 623 72.5C646 74.7 669 80.3 692.2 80.5C715.3 80.7 738.7 75.3 761.8 73.8C785 72.3 808 74.7 831 77.7C854 80.7 877 84.3 888.5 86.2L900 88L900 0L888.5 0C877 0 854 0 831 0C808 0 785 0 761.8 0C738.7 0 715.3 0 692.2 0C669 0 646 0 623 0C600 0 577 0 554 0C531 0 508 0 484.8 0C461.7 0 438.3 0 415.2 0C392 0 369 0 346 0C323 0 300 0 277 0C254 0 231 0 207.8 0C184.7 0 161.3 0 138.2 0C115 0 92 0 69 0C46 0 23 0 11.5 0L0 0Z" fill="#15487b"></path><path d="M0 57L11.5 57.7C23 58.3 46 59.7 69 62.7C92 65.7 115 70.3 138.2 68.2C161.3 66 184.7 57 207.8 53.7C231 50.3 254 52.7 277 55.2C300 57.7 323 60.3 346 64.2C369 68 392 73 415.2 72.7C438.3 72.3 461.7 66.7 484.8 61.7C508 56.7 531 52.3 554 52C577 51.7 600 55.3 623 59C646 62.7 669 66.3 692.2 67C715.3 67.7 738.7 65.3 761.8 62C785 58.7 808 54.3 831 52.5C854 50.7 877 51.3 888.5 51.7L900 52L900 0L888.5 0C877 0 854 0 831 0C808 0 785 0 761.8 0C738.7 0 715.3 0 692.2 0C669 0 646 0 623 0C600 0 577 0 554 0C531 0 508 0 484.8 0C461.7 0 438.3 0 415.2 0C392 0 369 0 346 0C323 0 300 0 277 0C254 0 231 0 207.8 0C184.7 0 161.3 0 138.2 0C115 0 92 0 69 0C46 0 23 0 11.5 0L0 0Z" fill="#143663"></path><path d="M0 51L11.5 51.7C23 52.3 46 53.7 69 53.2C92 52.7 115 50.3 138.2 50.3C161.3 50.3 184.7 52.7 207.8 55.2C231 57.7 254 60.3 277 59.7C300 59 323 55 346 52.5C369 50 392 49 415.2 50.7C438.3 52.3 461.7 56.7 484.8 57C508 57.3 531 53.7 554 53C577 52.3 600 54.7 623 56.5C646 58.3 669 59.7 692.2 60.2C715.3 60.7 738.7 60.3 761.8 56.8C785 53.3 808 46.7 831 43C854 39.3 877 38.7 888.5 38.3L900 38L900 0L888.5 0C877 0 854 0 831 0C808 0 785 0 761.8 0C738.7 0 715.3 0 692.2 0C669 0 646 0 623 0C600 0 577 0 554 0C531 0 508 0 484.8 0C461.7 0 438.3 0 415.2 0C392 0 369 0 346 0C323 0 300 0 277 0C254 0 231 0 207.8 0C184.7 0 161.3 0 138.2 0C115 0 92 0 69 0C46 0 23 0 11.5 0L0 0Z" fill="#10264b"></path><path d="M0 35L11.5 34.8C23 34.7 46 34.3 69 35.8C92 37.3 115 40.7 138.2 40C161.3 39.3 184.7 34.7 207.8 33C231 31.3 254 32.7 277 34.8C300 37 323 40 346 40.3C369 40.7 392 38.3 415.2 37.5C438.3 36.7 461.7 37.3 484.8 36.2C508 35 531 32 554 31C577 30 600 31 623 30.8C646 30.7 669 29.3 692.2 31.2C715.3 33 738.7 38 761.8 40.5C785 43 808 43 831 42.7C854 42.3 877 41.7 888.5 41.3L900 41L900 0L888.5 0C877 0 854 0 831 0C808 0 785 0 761.8 0C738.7 0 715.3 0 692.2 0C669 0 646 0 623 0C600 0 577 0 554 0C531 0 508 0 484.8 0C461.7 0 438.3 0 415.2 0C392 0 369 0 346 0C323 0 300 0 277 0C254 0 231 0 207.8 0C184.7 0 161.3 0 138.2 0C115 0 92 0 69 0C46 0 23 0 11.5 0L0 0Z" fill="#0a1735"></path><path d="M0 17L11.5 16.7C23 16.3 46 15.7 69 17.5C92 19.3 115 23.7 138.2 25.7C161.3 27.7 184.7 27.3 207.8 27.2C231 27 254 27 277 24.5C300 22 323 17 346 15.8C369 14.7 392 17.3 415.2 20.2C438.3 23 461.7 26 484.8 24.5C508 23 531 17 554 15.8C577 14.7 600 18.3 623 20C646 21.7 669 21.3 692.2 22.3C715.3 23.3 738.7 25.7 761.8 25.8C785 26 808 24 831 23.5C854 23 877 24 888.5 24.5L900 25L900 0L888.5 0C877 0 854 0 831 0C808 0 785 0 761.8 0C738.7 0 715.3 0 692.2 0C669 0 646 0 623 0C600 0 577 0 554 0C531 0 508 0 484.8 0C461.7 0 438.3 0 415.2 0C392 0 369 0 346 0C323 0 300 0 277 0C254 0 231 0 207.8 0C184.7 0 161.3 0 138.2 0C115 0 92 0 69 0C46 0 23 0 11.5 0L0 0Z" fill="#020121"></path></svg>