<svg id="visual" viewBox="0 0 1600 200" width="1600" height="200" xmlns="http://www.w3.org/2000/svg" xmlns:xlink="http://www.w3.org/1999/xlink" version="1.1"><path d="M0 128L22.2 121.5C44.3 115 88.7 102 133.2 100.5C177.7 99 222.3 109 266.8 109C311.3 109 355.7 99 400 100.2C444.3 101.3 488.7 113.7 533.2 117.8C577.7 122 622.3 118 666.8 111.7C711.3 105.3 755.7 96.7 800 96.5C844.3 96.3 888.7 104.7 933.2 110.3C977.7 116 1022.3 119 1066.8 115.8C1111.3 112.7 1155.7 103.3 1200 101C1244.3 98.7 1288.7 103.3 1333.2 102C1377.7 100.7 1422.3 93.3 1466.8 95C1511.3 96.7 1555.7 107.3 1577.8 112.7L1600 118L1600 0L1577.8 0C1555.7 0 1511.3 0 1466.8 0C1422.3 0 1377.7 0 1333.2 0C1288.7 0 1244.3 0 1200 0C1155.7 0 1111.3 0 1066.8 0C1022.3 0 977.7 0 933.2 0C888.7 0 844.3 0 800 0C755.7 0 711.3 0 666.8 0C622.3 0 577.7 0 533.2 0C488.7 0 444.3 0 400 0C355.7 0 311.3 0 266.8 0C222.3 0 177.7 0 133.2 0C88.7 0 44.3 0 22.2 0L0 0Z" fill="#113c68"></path><path d="M0 67L22.2 67.3C44.3 67.7 88.7 68.3 133.2 72C177.7 75.7 222.3 82.3 266.8 84.8C311.3 87.3 355.7 85.7 400 83.7C444.3 81.7 488.7 79.3 533.2 76.7C577.7 74 622.3 71 666.8 72.5C711.3 74 755.7 80 800 81.7C844.3 83.3 888.7 80.7 933.2 78.5C977.7 76.3 1022.3 74.7 1066.8 74.7C1111.3 74.7 1155.7 76.3 1200 75C1244.3 73.7 1288.7 69.3 1333.2 70.8C1377.7 72.3 1422.3 79.7 1466.8 81.2C1511.3 82.7 1555.7 78.3 1577.8 76.2L1600 74L1600 0L1577.8 0C1555.7 0 1511.3 0 1466.8 0C1422.3 0 1377.7 0 1333.2 0C1288.7 0 1244.3 0 1200 0C1155.7 0 1111.3 0 1066.8 0C1022.3 0 977.7 0 933.2 0C888.7 0 844.3 0 800 0C755.7 0 711.3 0 666.8 0C622.3 0 577.7 0 533.2 0C488.7 0 444.3 0 400 0C355.7 0 311.3 0 266.8 0C222.3 0 177.7 0 133.2 0C88.7 0 44.3 0 22.2 0L0 0Z" fill="#102e55"></path><path d="M0 57L22.2 56.7C44.3 56.3 88.7 55.7 133.2 56C177.7 56.3 222.3 57.7 266.8 57.2C311.3 56.7 355.7 54.3 400 57.5C444.3 60.7 488.7 69.3 533.2 71.8C577.7 74.3 622.3 70.7 666.8 65.7C711.3 60.7 755.7 54.3 800 52.7C844.3 51 888.7 54 933.2 54C977.7 54 1022.3 51 1066.8 54.8C1111.3 58.7 1155.7 69.3 1200 70C1244.3 70.7 1288.7 61.3 1333.2 61C1377.7 60.7 1422.3 69.3 1466.8 74.7C1511.3 80 1555.7 82 1577.8 83L1600 84L1600 0L1577.8 0C1555.7 0 1511.3 0 1466.8 0C1422.3 0 1377.7 0 1333.2 0C1288.7 0 1244.3 0 1200 0C1155.7 0 1111.3 0 1066.8 0C1022.3 0 977.7 0 933.2 0C888.7 0 844.3 0 800 0C755.7 0 711.3 0 666.8 0C622.3 0 577.7 0 533.2 0C488.7 0 444.3 0 400 0C355.7 0 311.3 0 266.8 0C222.3 0 177.7 0 133.2 0C88.7 0 44.3 0 22.2 0L0 0Z" fill="#0d2143"></path><path d="M0 39L22.2 39.5C44.3 40 88.7 41 133.2 40.8C177.7 40.7 222.3 39.3 266.8 38.3C311.3 37.3 355.7 36.7 400 40.5C444.3 44.3 488.7 52.7 533.2 55.7C577.7 58.7 622.3 56.3 666.8 54.5C711.3 52.7 755.7 51.3 800 47.8C844.3 44.3 888.7 38.7 933.2 37.3C977.7 36 1022.3 39 1066.8 41.5C1111.3 44 1155.7 46 1200 47.2C1244.3 48.3 1288.7 48.7 1333.2 46.5C1377.7 44.3 1422.3 39.7 1466.8 41.2C1511.3 42.7 1555.7 50.3 1577.8 54.2L1600 58L1600 0L1577.8 0C1555.7 0 1511.3 0 1466.8 0C1422.3 0 1377.7 0 1333.2 0C1288.7 0 1244.3 0 1200 0C1155.7 0 1111.3 0 1066.8 0C1022.3 0 977.7 0 933.2 0C888.7 0 844.3 0 800 0C755.7 0 711.3 0 666.8 0C622.3 0 577.7 0 533.2 0C488.7 0 444.3 0 400 0C355.7 0 311.3 0 266.8 0C222.3 0 177.7 0 133.2 0C88.7 0 44.3 0 22.2 0L0 0Z" fill="#081531"></path><path d="M0 33L22.2 33.5C44.3 34 88.7 35 133.2 34.8C177.7 34.7 222.3 33.3 266.8 33.5C311.3 33.7 355.7 35.3 400 34.8C444.3 34.3 488.7 31.7 533.2 27.7C577.7 23.7 622.3 18.3 666.8 17.8C711.3 17.3 755.7 21.7 800 25.3C844.3 29 888.7 32 933.2 31.3C977.7 30.7 1022.3 26.3 1066.8 25.3C1111.3 24.3 1155.7 26.7 1200 26.8C1244.3 27 1288.7 25 1333.2 24.8C1377.7 24.7 1422.3 26.3 1466.8 25.5C1511.3 24.7 1555.7 21.3 1577.8 19.7L1600 18L1600 0L1577.8 0C1555.7 0 1511.3 0 1466.8 0C1422.3 0 1377.7 0 1333.2 0C1288.7 0 1244.3 0 1200 0C1155.7 0 1111.3 0 1066.8 0C1022.3 0 977.7 0 933.2 0C888.7 0 844.3 0 800 0C755.7 0 711.3 0 666.8 0C622.3 0 577.7 0 533.2 0C488.7 0 444.3 0 400 0C355.7 0 311.3 0 266.8 0C222.3 0 177.7 0 133.2 0C88.7 0 44.3 0 22.2 0L0 0Z" fill="#020121"></path></svg>