<svg id="visual" viewBox="0 0 900 600" width="900" height="600" xmlns="http://www.w3.org/2000/svg" xmlns:xlink="http://www.w3.org/1999/xlink" version="1.1"><path d="M0 502L11.5 504.7C23 507.3 46 512.7 69 515.8C92 519 115 520 138.2 517C161.3 514 184.7 507 207.8 507.8C231 508.7 254 517.3 277 523.3C300 529.3 323 532.7 346 528.3C369 524 392 512 415.2 512.3C438.3 512.7 461.7 525.3 484.8 528.3C508 531.3 531 524.7 554 523.7C577 522.7 600 527.3 623 529.2C646 531 669 530 692.2 527C715.3 524 738.7 519 761.8 519.7C785 520.3 808 526.7 831 526.5C854 526.3 877 519.7 888.5 516.3L900 513L900 601L888.5 601C877 601 854 601 831 601C808 601 785 601 761.8 601C738.7 601 715.3 601 692.2 601C669 601 646 601 623 601C600 601 577 601 554 601C531 601 508 601 484.8 601C461.7 601 438.3 601 415.2 601C392 601 369 601 346 601C323 601 300 601 277 601C254 601 231 601 207.8 601C184.7 601 161.3 601 138.2 601C115 601 92 601 69 601C46 601 23 601 11.5 601L0 601Z" fill="#15487b"></path><path d="M0 547L11.5 543.7C23 540.3 46 533.7 69 529.8C92 526 115 525 138.2 527.8C161.3 530.7 184.7 537.3 207.8 537.8C231 538.3 254 532.7 277 533.5C300 534.3 323 541.7 346 542C369 542.3 392 535.7 415.2 533.8C438.3 532 461.7 535 484.8 536.2C508 537.3 531 536.7 554 535.5C577 534.3 600 532.7 623 531.5C646 530.3 669 529.7 692.2 528.3C715.3 527 738.7 525 761.8 523.8C785 522.7 808 522.3 831 524.8C854 527.3 877 532.7 888.5 535.3L900 538L900 601L888.5 601C877 601 854 601 831 601C808 601 785 601 761.8 601C738.7 601 715.3 601 692.2 601C669 601 646 601 623 601C600 601 577 601 554 601C531 601 508 601 484.8 601C461.7 601 438.3 601 415.2 601C392 601 369 601 346 601C323 601 300 601 277 601C254 601 231 601 207.8 601C184.7 601 161.3 601 138.2 601C115 601 92 601 69 601C46 601 23 601 11.5 601L0 601Z" fill="#143663"></path><path d="M0 536L11.5 540C23 544 46 552 69 555.3C92 558.7 115 557.3 138.2 553.3C161.3 549.3 184.7 542.7 207.8 543.8C231 545 254 554 277 558.3C300 562.7 323 562.3 346 558.8C369 555.3 392 548.7 415.2 547.8C438.3 547 461.7 552 484.8 554.2C508 556.3 531 555.7 554 554C577 552.3 600 549.7 623 550.2C646 550.7 669 554.3 692.2 553.2C715.3 552 738.7 546 761.8 545.2C785 544.3 808 548.7 831 552.7C854 556.7 877 560.3 888.5 562.2L900 564L900 601L888.5 601C877 601 854 601 831 601C808 601 785 601 761.8 601C738.7 601 715.3 601 692.2 601C669 601 646 601 623 601C600 601 577 601 554 601C531 601 508 601 484.8 601C461.7 601 438.3 601 415.2 601C392 601 369 601 346 601C323 601 300 601 277 601C254 601 231 601 207.8 601C184.7 601 161.3 601 138.2 601C115 601 92 601 69 601C46 601 23 601 11.5 601L0 601Z" fill="#10264b"></path><path d="M0 553L11.5 555C23 557 46 561 69 560.8C92 560.7 115 556.3 138.2 555.5C161.3 554.7 184.7 557.3 207.8 560.3C231 563.3 254 566.7 277 568.2C300 569.7 323 569.3 346 567.3C369 565.3 392 561.7 415.2 560.5C438.3 559.3 461.7 560.7 484.8 559.7C508 558.7 531 555.3 554 557.2C577 559 600 566 623 566.3C646 566.7 669 560.3 692.2 560.2C715.3 560 738.7 566 761.8 566.8C785 567.7 808 563.3 831 563.8C854 564.3 877 569.7 888.5 572.3L900 575L900 601L888.5 601C877 601 854 601 831 601C808 601 785 601 761.8 601C738.7 601 715.3 601 692.2 601C669 601 646 601 623 601C600 601 577 601 554 601C531 601 508 601 484.8 601C461.7 601 438.3 601 415.2 601C392 601 369 601 346 601C323 601 300 601 277 601C254 601 231 601 207.8 601C184.7 601 161.3 601 138.2 601C115 601 92 601 69 601C46 601 23 601 11.5 601L0 601Z" fill="#0a1735"></path><path d="M0 569L11.5 569.5C23 570 46 571 69 571.2C92 571.3 115 570.7 138.2 572.7C161.3 574.7 184.7 579.3 207.8 581C231 582.7 254 581.3 277 579.8C300 578.3 323 576.7 346 577.8C369 579 392 583 415.2 585C438.3 587 461.7 587 484.8 586.3C508 585.7 531 584.3 554 583.5C577 582.7 600 582.3 623 580.2C646 578 669 574 692.2 574.5C715.3 575 738.7 580 761.8 579.8C785 579.7 808 574.3 831 574.3C854 574.3 877 579.7 888.5 582.3L900 585L900 601L888.5 601C877 601 854 601 831 601C808 601 785 601 761.8 601C738.7 601 715.3 601 692.2 601C669 601 646 601 623 601C600 601 577 601 554 601C531 601 508 601 484.8 601C461.7 601 438.3 601 415.2 601C392 601 369 601 346 601C323 601 300 601 277 601C254 601 231 601 207.8 601C184.7 601 161.3 601 138.2 601C115 601 92 601 69 601C46 601 23 601 11.5 601L0 601Z" fill="#020121"></path></svg>