<svg id="visual" viewBox="0 0 1600 200" width="1600" height="200" xmlns="http://www.w3.org/2000/svg" xmlns:xlink="http://www.w3.org/1999/xlink" version="1.1"><path d="M0 90L14.8 93.8C29.7 97.7 59.3 105.3 89 111.3C118.7 117.3 148.3 121.7 178 118C207.7 114.3 237.3 102.7 267 96C296.7 89.3 326.3 87.7 355.8 90.3C385.3 93 414.7 100 444.2 100.7C473.7 101.3 503.3 95.7 533 98C562.7 100.3 592.3 110.7 622 113.8C651.7 117 681.3 113 711 110.2C740.7 107.3 770.3 105.7 800 103.5C829.7 101.3 859.3 98.7 889 100.3C918.7 102 948.3 108 978 110.2C1007.7 112.3 1037.3 110.7 1067 106C1096.7 101.3 1126.3 93.7 1155.8 94.8C1185.3 96 1214.7 106 1244.2 108.2C1273.7 110.3 1303.3 104.7 1333 106.3C1362.7 108 1392.3 117 1422 119.2C1451.7 121.3 1481.3 116.7 1511 111.5C1540.7 106.3 1570.3 100.7 1585.2 97.8L1600 95L1600 201L1585.2 201C1570.3 201 1540.7 201 1511 201C1481.3 201 1451.7 201 1422 201C1392.3 201 1362.7 201 1333 201C1303.3 201 1273.7 201 1244.2 201C1214.7 201 1185.3 201 1155.8 201C1126.3 201 1096.7 201 1067 201C1037.3 201 1007.7 201 978 201C948.3 201 918.7 201 889 201C859.3 201 829.7 201 800 201C770.3 201 740.7 201 711 201C681.3 201 651.7 201 622 201C592.3 201 562.7 201 533 201C503.3 201 473.7 201 444.2 201C414.7 201 385.3 201 355.8 201C326.3 201 296.7 201 267 201C237.3 201 207.7 201 178 201C148.3 201 118.7 201 89 201C59.3 201 29.7 201 14.8 201L0 201Z" fill="#113c68"></path><path d="M0 120L14.8 116.8C29.7 113.7 59.3 107.3 89 109.5C118.7 111.7 148.3 122.3 178 123C207.7 123.7 237.3 114.3 267 115C296.7 115.7 326.3 126.3 355.8 126.7C385.3 127 414.7 117 444.2 117.2C473.7 117.3 503.3 127.7 533 126.5C562.7 125.3 592.3 112.7 622 106.5C651.7 100.3 681.3 100.7 711 101C740.7 101.3 770.3 101.7 800 105.2C829.7 108.7 859.3 115.3 889 115.2C918.7 115 948.3 108 978 108.8C1007.7 109.7 1037.3 118.3 1067 119.7C1096.7 121 1126.3 115 1155.8 114.3C1185.3 113.7 1214.7 118.3 1244.2 122.3C1273.7 126.3 1303.3 129.7 1333 125.7C1362.7 121.7 1392.3 110.3 1422 108.2C1451.7 106 1481.3 113 1511 115C1540.7 117 1570.3 114 1585.2 112.5L1600 111L1600 201L1585.2 201C1570.3 201 1540.7 201 1511 201C1481.3 201 1451.7 201 1422 201C1392.3 201 1362.7 201 1333 201C1303.3 201 1273.7 201 1244.2 201C1214.7 201 1185.3 201 1155.8 201C1126.3 201 1096.7 201 1067 201C1037.3 201 1007.7 201 978 201C948.3 201 918.7 201 889 201C859.3 201 829.7 201 800 201C770.3 201 740.7 201 711 201C681.3 201 651.7 201 622 201C592.3 201 562.7 201 533 201C503.3 201 473.7 201 444.2 201C414.7 201 385.3 201 355.8 201C326.3 201 296.7 201 267 201C237.3 201 207.7 201 178 201C148.3 201 118.7 201 89 201C59.3 201 29.7 201 14.8 201L0 201Z" fill="#113159"></path><path d="M0 135L14.8 136C29.7 137 59.3 139 89 137.5C118.7 136 148.3 131 178 132.5C207.7 134 237.3 142 267 142.8C296.7 143.7 326.3 137.3 355.8 137.5C385.3 137.7 414.7 144.3 444.2 146.3C473.7 148.3 503.3 145.7 533 142C562.7 138.3 592.3 133.7 622 131.7C651.7 129.7 681.3 130.3 711 130.7C740.7 131 770.3 131 800 133.5C829.7 136 859.3 141 889 142.8C918.7 144.7 948.3 143.3 978 139.2C1007.7 135 1037.3 128 1067 127.5C1096.7 127 1126.3 133 1155.8 134.3C1185.3 135.7 1214.7 132.3 1244.2 134.2C1273.7 136 1303.3 143 1333 143.7C1362.7 144.3 1392.3 138.7 1422 136.7C1451.7 134.7 1481.3 136.3 1511 136.8C1540.7 137.3 1570.3 136.7 1585.2 136.3L1600 136L1600 201L1585.2 201C1570.3 201 1540.7 201 1511 201C1481.3 201 1451.7 201 1422 201C1392.3 201 1362.7 201 1333 201C1303.3 201 1273.7 201 1244.2 201C1214.7 201 1185.3 201 1155.8 201C1126.3 201 1096.7 201 1067 201C1037.3 201 1007.7 201 978 201C948.3 201 918.7 201 889 201C859.3 201 829.7 201 800 201C770.3 201 740.7 201 711 201C681.3 201 651.7 201 622 201C592.3 201 562.7 201 533 201C503.3 201 473.7 201 444.2 201C414.7 201 385.3 201 355.8 201C326.3 201 296.7 201 267 201C237.3 201 207.7 201 178 201C148.3 201 118.7 201 89 201C59.3 201 29.7 201 14.8 201L0 201Z" fill="#0e264a"></path><path d="M0 144L14.8 146C29.7 148 59.3 152 89 154.7C118.7 157.3 148.3 158.7 178 159C207.7 159.3 237.3 158.7 267 157.8C296.7 157 326.3 156 355.8 154.3C385.3 152.7 414.7 150.3 444.2 150.8C473.7 151.3 503.3 154.7 533 154.2C562.7 153.7 592.3 149.3 622 149.3C651.7 149.3 681.3 153.7 711 156.8C740.7 160 770.3 162 800 161.2C829.7 160.3 859.3 156.7 889 152C918.7 147.3 948.3 141.7 978 141.5C1007.7 141.3 1037.3 146.7 1067 147.5C1096.7 148.3 1126.3 144.7 1155.8 146.5C1185.3 148.3 1214.7 155.7 1244.2 155C1273.7 154.3 1303.3 145.7 1333 144.7C1362.7 143.7 1392.3 150.3 1422 154C1451.7 157.7 1481.3 158.3 1511 157C1540.7 155.7 1570.3 152.3 1585.2 150.7L1600 149L1600 201L1585.2 201C1570.3 201 1540.7 201 1511 201C1481.3 201 1451.7 201 1422 201C1392.3 201 1362.7 201 1333 201C1303.3 201 1273.7 201 1244.2 201C1214.7 201 1185.3 201 1155.8 201C1126.3 201 1096.7 201 1067 201C1037.3 201 1007.7 201 978 201C948.3 201 918.7 201 889 201C859.3 201 829.7 201 800 201C770.3 201 740.7 201 711 201C681.3 201 651.7 201 622 201C592.3 201 562.7 201 533 201C503.3 201 473.7 201 444.2 201C414.7 201 385.3 201 355.8 201C326.3 201 296.7 201 267 201C237.3 201 207.7 201 178 201C148.3 201 118.7 201 89 201C59.3 201 29.7 201 14.8 201L0 201Z" fill="#0b1c3c"></path><path d="M0 174L14.8 174.3C29.7 174.7 59.3 175.3 89 173C118.7 170.7 148.3 165.3 178 165.3C207.7 165.3 237.3 170.7 267 169.7C296.7 168.7 326.3 161.3 355.8 159.8C385.3 158.3 414.7 162.7 444.2 163C473.7 163.3 503.3 159.7 533 157.3C562.7 155 592.3 154 622 154C651.7 154 681.3 155 711 157.3C740.7 159.7 770.3 163.3 800 166C829.7 168.7 859.3 170.3 889 169.5C918.7 168.7 948.3 165.3 978 164.5C1007.7 163.7 1037.3 165.3 1067 167.3C1096.7 169.3 1126.3 171.7 1155.8 171.8C1185.3 172 1214.7 170 1244.2 168.3C1273.7 166.7 1303.3 165.3 1333 162.8C1362.7 160.3 1392.3 156.7 1422 157.3C1451.7 158 1481.3 163 1511 166.5C1540.7 170 1570.3 172 1585.2 173L1600 174L1600 201L1585.2 201C1570.3 201 1540.7 201 1511 201C1481.3 201 1451.7 201 1422 201C1392.3 201 1362.7 201 1333 201C1303.3 201 1273.7 201 1244.2 201C1214.7 201 1185.3 201 1155.8 201C1126.3 201 1096.7 201 1067 201C1037.3 201 1007.7 201 978 201C948.3 201 918.7 201 889 201C859.3 201 829.7 201 800 201C770.3 201 740.7 201 711 201C681.3 201 651.7 201 622 201C592.3 201 562.7 201 533 201C503.3 201 473.7 201 444.2 201C414.7 201 385.3 201 355.8 201C326.3 201 296.7 201 267 201C237.3 201 207.7 201 178 201C148.3 201 118.7 201 89 201C59.3 201 29.7 201 14.8 201L0 201Z" fill="#08122e"></path><path d="M0 177L14.8 175.8C29.7 174.7 59.3 172.3 89 173.7C118.7 175 148.3 180 178 180C207.7 180 237.3 175 267 172.3C296.7 169.7 326.3 169.3 355.8 169.7C385.3 170 414.7 171 444.2 173.8C473.7 176.7 503.3 181.3 533 183C562.7 184.7 592.3 183.3 622 180.8C651.7 178.3 681.3 174.7 711 173.5C740.7 172.3 770.3 173.7 800 174.2C829.7 174.7 859.3 174.3 889 175.8C918.7 177.3 948.3 180.7 978 183.2C1007.7 185.7 1037.3 187.3 1067 186.3C1096.7 185.3 1126.3 181.7 1155.8 181.2C1185.3 180.7 1214.7 183.3 1244.2 182.5C1273.7 181.7 1303.3 177.3 1333 176.5C1362.7 175.7 1392.3 178.3 1422 179.2C1451.7 180 1481.3 179 1511 177.3C1540.7 175.7 1570.3 173.3 1585.2 172.2L1600 171L1600 201L1585.2 201C1570.3 201 1540.7 201 1511 201C1481.3 201 1451.7 201 1422 201C1392.3 201 1362.7 201 1333 201C1303.3 201 1273.7 201 1244.2 201C1214.7 201 1185.3 201 1155.8 201C1126.3 201 1096.7 201 1067 201C1037.3 201 1007.7 201 978 201C948.3 201 918.7 201 889 201C859.3 201 829.7 201 800 201C770.3 201 740.7 201 711 201C681.3 201 651.7 201 622 201C592.3 201 562.7 201 533 201C503.3 201 473.7 201 444.2 201C414.7 201 385.3 201 355.8 201C326.3 201 296.7 201 267 201C237.3 201 207.7 201 178 201C148.3 201 118.7 201 89 201C59.3 201 29.7 201 14.8 201L0 201Z" fill="#020121"></path></svg>