<svg id="visual" viewBox="0 0 1600 600" width="1600" height="600" xmlns="http://www.w3.org/2000/svg" xmlns:xlink="http://www.w3.org/1999/xlink" version="1.1"><path d="M0 498L22.2 502C44.3 506 88.7 514 133.2 516.2C177.7 518.3 222.3 514.7 266.8 513.7C311.3 512.7 355.7 514.3 400 509.7C444.3 505 488.7 494 533.2 490.5C577.7 487 622.3 491 666.8 494.2C711.3 497.3 755.7 499.7 800 500.3C844.3 501 888.7 500 933.2 500.8C977.7 501.7 1022.3 504.3 1066.8 505.5C1111.3 506.7 1155.7 506.3 1200 508.7C1244.3 511 1288.7 516 1333.2 515.8C1377.7 515.7 1422.3 510.3 1466.8 504.2C1511.3 498 1555.7 491 1577.8 487.5L1600 484L1600 601L1577.8 601C1555.7 601 1511.3 601 1466.8 601C1422.3 601 1377.7 601 1333.2 601C1288.7 601 1244.3 601 1200 601C1155.7 601 1111.3 601 1066.8 601C1022.3 601 977.7 601 933.2 601C888.7 601 844.3 601 800 601C755.7 601 711.3 601 666.8 601C622.3 601 577.7 601 533.2 601C488.7 601 444.3 601 400 601C355.7 601 311.3 601 266.8 601C222.3 601 177.7 601 133.2 601C88.7 601 44.3 601 22.2 601L0 601Z" fill="#060666"></path><path d="M0 536L22.2 536C44.3 536 88.7 536 133.2 530.8C177.7 525.7 222.3 515.3 266.8 510C311.3 504.7 355.7 504.3 400 504.7C444.3 505 488.7 506 533.2 511.2C577.7 516.3 622.3 525.7 666.8 526.3C711.3 527 755.7 519 800 514.8C844.3 510.7 888.7 510.3 933.2 515.8C977.7 521.3 1022.3 532.7 1066.8 531.8C1111.3 531 1155.7 518 1200 512.2C1244.3 506.3 1288.7 507.7 1333.2 514C1377.7 520.3 1422.3 531.7 1466.8 531.8C1511.3 532 1555.7 521 1577.8 515.5L1600 510L1600 601L1577.8 601C1555.7 601 1511.3 601 1466.8 601C1422.3 601 1377.7 601 1333.2 601C1288.7 601 1244.3 601 1200 601C1155.7 601 1111.3 601 1066.8 601C1022.3 601 977.7 601 933.2 601C888.7 601 844.3 601 800 601C755.7 601 711.3 601 666.8 601C622.3 601 577.7 601 533.2 601C488.7 601 444.3 601 400 601C355.7 601 311.3 601 266.8 601C222.3 601 177.7 601 133.2 601C88.7 601 44.3 601 22.2 601L0 601Z" fill="#000b55"></path><path d="M0 529L22.2 532.8C44.3 536.7 88.7 544.3 133.2 547.2C177.7 550 222.3 548 266.8 542.8C311.3 537.7 355.7 529.3 400 531.3C444.3 533.3 488.7 545.7 533.2 545.5C577.7 545.3 622.3 532.7 666.8 533.3C711.3 534 755.7 548 800 554.3C844.3 560.7 888.7 559.3 933.2 552.2C977.7 545 1022.3 532 1066.8 527C1111.3 522 1155.7 525 1200 530.7C1244.3 536.3 1288.7 544.7 1333.2 543.8C1377.7 543 1422.3 533 1466.8 532.2C1511.3 531.3 1555.7 539.7 1577.8 543.8L1600 548L1600 601L1577.8 601C1555.7 601 1511.3 601 1466.8 601C1422.3 601 1377.7 601 1333.2 601C1288.7 601 1244.3 601 1200 601C1155.7 601 1111.3 601 1066.8 601C1022.3 601 977.7 601 933.2 601C888.7 601 844.3 601 800 601C755.7 601 711.3 601 666.8 601C622.3 601 577.7 601 533.2 601C488.7 601 444.3 601 400 601C355.7 601 311.3 601 266.8 601C222.3 601 177.7 601 133.2 601C88.7 601 44.3 601 22.2 601L0 601Z" fill="#000b44"></path><path d="M0 574L22.2 573.5C44.3 573 88.7 572 133.2 568.8C177.7 565.7 222.3 560.3 266.8 557.2C311.3 554 355.7 553 400 550.5C444.3 548 488.7 544 533.2 546.2C577.7 548.3 622.3 556.7 666.8 558.2C711.3 559.7 755.7 554.3 800 552.5C844.3 550.7 888.7 552.3 933.2 553.5C977.7 554.7 1022.3 555.3 1066.8 553.7C1111.3 552 1155.7 548 1200 547C1244.3 546 1288.7 548 1333.2 547.2C1377.7 546.3 1422.3 542.7 1466.8 542.7C1511.3 542.7 1555.7 546.3 1577.8 548.2L1600 550L1600 601L1577.8 601C1555.7 601 1511.3 601 1466.8 601C1422.3 601 1377.7 601 1333.2 601C1288.7 601 1244.3 601 1200 601C1155.7 601 1111.3 601 1066.8 601C1022.3 601 977.7 601 933.2 601C888.7 601 844.3 601 800 601C755.7 601 711.3 601 666.8 601C622.3 601 577.7 601 533.2 601C488.7 601 444.3 601 400 601C355.7 601 311.3 601 266.8 601C222.3 601 177.7 601 133.2 601C88.7 601 44.3 601 22.2 601L0 601Z" fill="#040732"></path><path d="M0 595L22.2 590C44.3 585 88.7 575 133.2 574.7C177.7 574.3 222.3 583.7 266.8 588.2C311.3 592.7 355.7 592.3 400 591C444.3 589.7 488.7 587.3 533.2 586.5C577.7 585.7 622.3 586.3 666.8 585.3C711.3 584.3 755.7 581.7 800 580.8C844.3 580 888.7 581 933.2 578.5C977.7 576 1022.3 570 1066.8 571C1111.3 572 1155.7 580 1200 582.2C1244.3 584.3 1288.7 580.7 1333.2 577.2C1377.7 573.7 1422.3 570.3 1466.8 567.5C1511.3 564.7 1555.7 562.3 1577.8 561.2L1600 560L1600 601L1577.8 601C1555.7 601 1511.3 601 1466.8 601C1422.3 601 1377.7 601 1333.2 601C1288.7 601 1244.3 601 1200 601C1155.7 601 1111.3 601 1066.8 601C1022.3 601 977.7 601 933.2 601C888.7 601 844.3 601 800 601C755.7 601 711.3 601 666.8 601C622.3 601 577.7 601 533.2 601C488.7 601 444.3 601 400 601C355.7 601 311.3 601 266.8 601C222.3 601 177.7 601 133.2 601C88.7 601 44.3 601 22.2 601L0 601Z" fill="#020121"></path></svg>